<svg xmlns="http://www.w3.org/2000/svg" width="832.192" height="245.613" viewBox="0 0 832.192 245.613"><path d="M55.571,174.738V38.209H67.233V174.052c0,63.8,34.3,97.422,86.445,97.422,51.8,0,85.418-32.245,85.418-96.736V38.209h11.662v135.5c0,71.7-39.449,108.4-97.422,108.4C95.708,282.108,55.571,245.746,55.571,174.738Z" transform="translate(-55.571 -36.495)" fill="#fff"/><path d="M176.1,38.209H187.08l101.54,146.133L389.815,38.209h10.978V278.335H389.131V58.448L288.621,202.524h-.688L187.424,58.448V278.335H176.1Z" transform="translate(79.797 -36.495)" fill="#fff"/><path d="M442.052,38.209h11.664V278.335H442.052Z" transform="translate(378.476 -36.495)" fill="#fff"/><path d="M430.067,37.4H419.091L305.2,279.241h12.007l32.93-69.979,74.1-158.14,69.294,147.506,5.146,10.634,32.588,69.979h12.693Z" transform="translate(224.783 -37.401)" fill="#fff"/><rect width="81.915" height="10.615" transform="translate(606.109 161.227)" fill="#fff"/></svg>